# xmcd
#
# Track frame offsets:
#	150
#	7776
#	13446
#	26662
#	46917
#	62328
#	75237
#	86101
#	99345
#	112796
#	123926
#	137507
#	151772
#	161531
#
# Disc length: 2264 seconds
#
# Revision: 0
# Processed by: cddbd v1.5.1PL0 Copyright (c) Steve Scherf et al.
# Submitted via: dBpowerAMP V4.0
#
DISCID=9108d60e
DTITLE=Bill Mansfield and The Carolina Mockingbirds - Root Hog Or Die
DYEAR=1900
DGENRE=Country
TTITLE0=Root Hog Or Die
TTITLE1=Up Jumped Ginny
TTITLE2=The Sporting Cowboy
TTITLE3=D Medley (Texas Quick-step/Lafayette/Folding Down The Sheets)
TTITLE4=Whistling Rufus
TTITLE5=Wild Horse
TTITLE6=Bonnie Prince Charlie
TTITLE7=The Bald Headed End Of The Broom
TTITLE8=Arnold's Fandango/Flying Indian
TTITLE9=The United States
TTITLE10=(New) Taxes On The Women
TTITLE11=Battle Of The Boyne/Climbing The Mountain
TTITLE12=The Farmer Is The Man That Feeds Us All
TTITLE13=Olden Slippers
EXTD=
EXTT0=
EXTT1=
EXTT2=
EXTT3=
EXTT4=
EXTT5=
EXTT6=
EXTT7=
EXTT8=
EXTT9=
EXTT10=
EXTT11=
EXTT12=
EXTT13=
PLAYORDER=
